<svg xmlns="http://www.w3.org/2000/svg" width="661.578" height="632.806" viewBox="0 0 661.578 632.806">
  <g id="undraw_project_completed_w0oq" transform="translate(-36.77)">
    <path id="Path_3" data-name="Path 3" d="M717.714,398.628s-35.317,27.749-17.658,34.056,29.01-22.7,29.01-22.7Z" transform="translate(-223.7 -124.206)" fill="#8b6767"/>
    <path id="Path_4" data-name="Path 4" d="M722.62,386.28l-7.568,12.613s12.613,0,15.136,18.92L740.279,405.2Z" transform="translate(-227.345 -121.949)" fill="#cfcce0"/>
    <path id="Path_5" data-name="Path 5" d="M806.836,675.375l1.262,37.839-15.136,8.829-6.306-3.784,1.261-42.885Z" transform="translate(-143.805 -123.462)" fill="#8b6767"/>
    <path id="Path_6" data-name="Path 6" d="M812.673,725.845l2.523,40.362-35.317,15.136L782.4,759.9s10.091-16.4,7.568-34.056Z" transform="translate(-239.196 -184.023)" fill="#8b6767"/>
    <path id="Path_7" data-name="Path 7" d="M863.806,353.868s20.181,52.975,23.965,85.77,10.091,119.825,10.091,119.825L910.474,671.72l-35.317,5.045L860.022,563.246,825.966,450.989,818.4,563.246l-6.307,102.167L779.3,666.674l-2.523-105.951L762.9,425.763l7.568-64.327Z" transform="translate(-236.092 -116.023)" fill="#2f2e41"/>
    <path id="Path_8" data-name="Path 8" d="M908.4,784.69s2.069-21.184,17.432-9.331l2.75-2.021L941.2,801.088s15.136,21.442-11.352,23.965-23.965-23.965-23.965-23.965l-2.523-11.352,1.261-7.434Z" transform="translate(-261.768 -192.416)" fill="#2f2e41"/>
    <path id="Path_9" data-name="Path 9" d="M803.079,756.714a20.038,20.038,0,0,1,10.091,17.658c0,12.613-1.261,13.875-1.261,13.875l-18.92,5.045s-12.613-1.261-20.181,6.307S727.4,812.212,727.4,802.122s31.533-26.488,31.533-26.488,9.364-15.814,16.034-14.214,9.192,4.123,9.192,5.385-3.784,10.091-3.784,10.091S801.818,771.85,803.079,756.714Z" transform="translate(-229.602 -189.666)" fill="#2f2e41"/>
    <circle id="Ellipse_1" data-name="Ellipse 1" cx="31.533" cy="31.533" r="31.533" transform="translate(539.422 19.636)" fill="#8b6767"/>
    <path id="Path_10" data-name="Path 10" d="M837.652,135.466,851.527,167l-37.84,54.237s-2.523-59.282-10.091-69.373S837.652,135.466,837.652,135.466Z" transform="translate(-243.363 -76.098)" fill="#8b6767"/>
    <path id="Path_11" data-name="Path 11" d="M695.182,142.187l6.307-16.4,5.045,1.261,6.307-5.045,8.829-27.749,12.613,8.829,16.4,165.233-102.166,2.523,13.874-114.78L675,123.267l9.1-12.036,6.031,18.343Z" transform="translate(-118.552 -17.231)" fill="#cfcce0"/>
    <path id="Path_12" data-name="Path 12" d="M859.367,276.638l3.86-114.1s7.492.578,10.015,4.362,44.146,11.352,44.146,11.352l-7.568,117.3S941.353,388.9,930,393.94s-31.533,3.784-31.533,3.784Z" transform="translate(-253.727 -81.048)" fill="#575a89"/>
    <path id="Path_13" data-name="Path 13" d="M777.124,267.209l13.38-76.9L760.727,210.45l7.568,55.5-6.307,37.84s-23.965,104.689-16.4,108.473,16.4,0,16.4,0L777.124,306.31Z" transform="translate(-232.658 -86.125)" fill="#575a89"/>
    <path id="Path_14" data-name="Path 14" d="M764.244,211.868l-8.829,2.523-3.784,50.453-6.307,44.146-30.272,54.237s15.136-10.091,21.442,18.92L769.833,324.1Z" transform="translate(-227.345 -90.065)" fill="#575a89"/>
    <path id="Path_15" data-name="Path 15" d="M890.583,386.28s-35.317,27.749-17.659,34.056,29.01-22.7,29.01-22.7Z" transform="translate(-255.301 -121.949)" fill="#8b6767"/>
    <path id="Path_16" data-name="Path 16" d="M797.708,335.08l-11.352,13.874L771.22,322.467l6.306-11.352Z" transform="translate(-140.983 -56.874)" fill="#cfcce0"/>
    <path id="Path_17" data-name="Path 17" d="M913.43,186.044,923.521,181s7.568,10.091,8.829,18.92,7.568,20.181,7.568,26.488,17.659,65.589,17.659,65.589L917.214,373.98s-8.829-30.272-27.749-32.794L921,297.04,903.34,265.507Z" transform="translate(-259.229 -84.422)" fill="#575a89"/>
    <path id="Path_18" data-name="Path 18" d="M833.343,83.943l5.946-2.381s-12.433-13.688-29.731-12.5l4.865-5.356s-11.893-4.761-22.7,7.737c-5.683,6.57-12.259,14.292-16.358,22.992h-6.368l2.658,5.852-9.3,5.852,9.548-1.051a32.7,32.7,0,0,0-.259,9.707,12.559,12.559,0,0,0,4.6,8.216h0s7.375-15.264,7.375-17.645v5.951s5.946-5.356,5.946-8.927l3.243,4.166,1.622-6.547,20,6.547L811.18,101.2l12.433,1.785-4.865-6.547s14.055,7.737,14.6,14.283S838,123.473,838,123.473,849.02,92.87,833.343,83.943Z" transform="translate(-235.991 -62.818)" fill="#2f2e41"/>
    <ellipse id="Ellipse_2" data-name="Ellipse 2" cx="3.532" cy="4.415" rx="3.532" ry="4.415" transform="translate(593.28 41.709)" fill="#8b6767"/>
    <path id="Path_19" data-name="Path 19" d="M154.244,311.293H45.361V280.782H102.2Z" transform="translate(-8.292 -51.329)" fill="#5f27cd"/>
    <path id="Path_20" data-name="Path 20" d="M163.24,375.811v89.141H516.812V375.811ZM301.139,450H186.273V437.432H301.139Zm192.639-23.332H186.273V414.1H493.779Zm0-23.332H186.273V390.768H493.779Z" transform="translate(-126.471 -120.035)" fill="#3f3d56"/>
    <path id="Path_21" data-name="Path 21" d="M154.244,134.86H45.361V104.348H102.2Z" transform="translate(-8.292 -19.075)" fill="#5f27cd"/>
    <path id="Path_22" data-name="Path 22" d="M163.24,201.574v89.141H516.812V201.574Zm137.9,74.184H186.273V263.195H301.139Zm66.407-23.332H186.273V239.863H367.546Zm126.233-23.332H186.273V216.531H493.779Z" transform="translate(-126.471 -88.183)" fill="#3f3d56"/>
    <path id="Path_23" data-name="Path 23" d="M154.244,484.066H45.361V453.555H102.2Z" transform="translate(-8.292 -82.912)" fill="#5f27cd"/>
    <path id="Path_24" data-name="Path 24" d="M163.24,546.388v89.141H516.812V546.388Zm204.306,74.184H186.273V608.009H367.546Zm0-23.332H186.273V584.677H367.546Zm126.233-23.332H186.273V561.345H493.779Z" transform="translate(-126.471 -151.217)" fill="#3f3d56"/>
    <path id="Path_25" data-name="Path 25" d="M589.043,212.437H538.789V162.183h34.1v1.2h-32.9v47.861h47.861V187.31h1.2Z" transform="translate(-98.494 -29.648)" fill="#3f3d56"/>
    <path id="Path_26" data-name="Path 26" d="M685.3,261.3c-1.161-3.429-15.724-15.085-6.8-17.045l7.318,9.758,33.646-33.645,3.384,3.384Z" transform="translate(-220.137 -91.619)" fill="#5f27cd"/>
    <path id="Path_27" data-name="Path 27" d="M589.043,386.674H538.789V336.42h34.1v1.2h-32.9v47.861h47.861V361.547h1.2Z" transform="translate(-98.494 -61.499)" fill="#3f3d56"/>
    <path id="Path_28" data-name="Path 28" d="M685.3,435.537c-1.161-3.429-15.724-15.085-6.8-17.045l7.318,9.758,33.646-33.645,3.384,3.384Z" transform="translate(-220.137 -123.47)" fill="#5f27cd"/>
    <path id="Path_29" data-name="Path 29" d="M589.043,560.179H538.789V509.926h34.1v1.2h-32.9v47.861h47.861V535.052h1.2Z" transform="translate(-98.494 -93.217)" fill="#3f3d56"/>
    <path id="Path_30" data-name="Path 30" d="M685.3,609.042c-1.161-3.429-15.724-15.085-6.8-17.045l7.318,9.758,33.646-33.645,3.384,3.384Z" transform="translate(-220.137 -155.188)" fill="#5f27cd"/>
  </g>
</svg>
